HIERARCHY
ROOT Hips
{
	OFFSET 50.942501 -6.878034 84.127296
	CHANNELS 6 Xposition Yposition Zposition Xrotation Yrotation Zrotation
	JOINT spine
	{
		OFFSET 0.000000 -0.342408 5.954384
		CHANNELS 3 Xrotation Yrotation Zrotation
		JOINT spine1
		{
			OFFSET 0.000000 -0.000001 8.856018
			CHANNELS 3 Xrotation Yrotation Zrotation
			JOINT spine2
			{
				OFFSET 0.000000 -0.000001 8.485672
				CHANNELS 3 Xrotation Yrotation Zrotation
				JOINT Neck
				{
					OFFSET 0.000000 -1.038703 21.786301
					CHANNELS 3 Xrotation Yrotation Zrotation
					JOINT Head
					{
						OFFSET 0.000000 -0.000001 6.582199
						CHANNELS 3 Xrotation Yrotation Zrotation
						End Site
						{
							OFFSET 0.000000 5.254357 15.932602
						}
					}
				}
				JOINT RightShoulder
				{
					OFFSET -3.573071 0.497524 9.163864
					CHANNELS 3 Xrotation Yrotation Zrotation
					JOINT RightArm
					{
						OFFSET 0.000000 -0.000002 12.019196
						CHANNELS 3 Xrotation Yrotation Zrotation
						JOINT RightArmRoll
						{
							OFFSET 0.000000 -0.000001 6.067551
							CHANNELS 3 Xrotation Yrotation Zrotation
							JOINT RightForeArm
							{
								OFFSET 0.000000 -0.000003 17.672607
								CHANNELS 3 Xrotation Yrotation Zrotation
								JOINT RightForeArmRoll
								{
									OFFSET 0.000000 -0.000001 6.808716
									CHANNELS 3 Xrotation Yrotation Zrotation
									JOINT RightHand
									{
										OFFSET 0.000000 -0.000002 13.663605
										CHANNELS 3 Xrotation Yrotation Zrotation
										End Site
										{
											OFFSET 0.000000 0.000000 0.100006
										}
									}
								}
							}
						}
					}
				}
				JOINT LeftShoulder
				{
					OFFSET 3.573071 0.497524 9.163864
					CHANNELS 3 Xrotation Yrotation Zrotation
					JOINT LeftArm
					{
						OFFSET 0.000000 -0.000002 12.019196
						CHANNELS 3 Xrotation Yrotation Zrotation
						JOINT LeftArmRoll
						{
							OFFSET 0.000000 -0.000001 6.067551
							CHANNELS 3 Xrotation Yrotation Zrotation
							JOINT LeftForeArm
							{
								OFFSET 0.000000 -0.000003 17.672607
								CHANNELS 3 Xrotation Yrotation Zrotation
								JOINT LeftForeArmRoll
								{
									OFFSET 0.000000 -0.000001 6.808716
									CHANNELS 3 Xrotation Yrotation Zrotation
									JOINT LeftHand
									{
										OFFSET 0.000000 -0.000002 13.663605
										CHANNELS 3 Xrotation Yrotation Zrotation
										End Site
										{
											OFFSET 0.000000 0.000000 0.100006
										}
									}
								}
							}
						}
					}
				}
			}
		}
	}
	JOINT RightUpLeg
	{
		OFFSET -5.277740 0.811859 -0.967796
		CHANNELS 3 Xrotation Yrotation Zrotation
		JOINT RightUpLegRoll
		{
			OFFSET 0.000000 -0.000003 16.021400
			CHANNELS 3 Xrotation Yrotation Zrotation
			JOINT RightLeg
			{
				OFFSET 0.000000 0.000003 -19.840096
				CHANNELS 3 Xrotation Yrotation Zrotation
				JOINT RightLegRoll
				{
					OFFSET 0.000000 -0.000003 19.904999
					CHANNELS 3 Xrotation Yrotation Zrotation
					JOINT RightFoot
					{
						OFFSET 0.000000 -0.000003 16.567497
						CHANNELS 3 Xrotation Yrotation Zrotation
						JOINT RightToeBase
						{
							OFFSET 0.000000 -0.000002 13.849602
							CHANNELS 3 Xrotation Yrotation Zrotation
							End Site
							{
								OFFSET 0.005871 0.773116 6.707275
							}
						}
					}
				}
			}
		}
	}
	JOINT LeftUpLeg
	{
		OFFSET 5.277740 0.811859 -0.967796
		CHANNELS 3 Xrotation Yrotation Zrotation
		JOINT LeftUpLegRoll
		{
			OFFSET 0.000000 -0.000003 16.021500
			CHANNELS 3 Xrotation Yrotation Zrotation
			JOINT LeftLeg
			{
				OFFSET 0.000000 -0.000003 19.839996
				CHANNELS 3 Xrotation Yrotation Zrotation
				JOINT LeftLegRoll
				{
					OFFSET 0.000000 -0.000003 20.089005
					CHANNELS 3 Xrotation Yrotation Zrotation
					JOINT LeftFoot
					{
						OFFSET 0.000000 -0.000002 16.383499
						CHANNELS 3 Xrotation Yrotation Zrotation
						JOINT LeftToeBase
						{
							OFFSET 0.000000 -0.000002 13.849594
							CHANNELS 3 Xrotation Yrotation Zrotation
							End Site
							{
								OFFSET -0.026310 0.773115 6.707275
							}
						}
					}
				}
			}
		}
	}
}
MOTION
Frames: 10
Frame Time: 0.041667
52.062199 -4.467886 84.398003 -11.105873 0.862283 -3.904322 -0.086620 -0.325543 0.073502 3.840749 -0.640475 0.155859 5.485891 -0.638571 0.163285 12.651500 6.876545 -1.310480 2.676382 -7.568431 -1.345693 6.782204 -73.442108 5.746249 -43.235193 -112.924494 -48.202322 0.000001 -0.000000 0.000000 -0.025461 3.645250 -1.990750 0.000001 0.000009 -3.011619 -5.000163 -7.999950 0.000018 -10.056725 68.224991 12.336878 -33.934374 119.759690 44.530139 -0.000000 0.000003 -0.000001 -0.019255 -3.640010 1.990817 -0.000002 -0.000004 3.011609 -5.000150 7.999909 -0.000009 4.829836 -179.278573 4.145435 179.999991 -0.000005 -1.229005 169.583447 -2.959492 -0.619795 0.000000 -0.000001 0.145125 69.828500 6.862976 2.148639 25.456955 -7.355617 -0.000000 6.240153 179.381682 -0.547616 -0.000004 -0.000004 -1.237010 -10.689925 2.020899 0.487498 0.000002 -0.000001 -0.177412 70.539168 -6.832000 -2.173699 25.456950 7.355613 -0.000000 
52.059898 -4.471251 84.390701 -11.108070 0.861182 -3.903144 -0.086980 -0.325508 0.073501 3.839309 -0.639518 0.155858 5.484449 -0.637615 0.163285 12.647814 6.866965 -1.315634 2.673129 -7.561409 -1.350907 6.763887 -73.440899 5.726567 -43.242115 -112.920464 -48.205266 0.000001 0.000000 -0.000000 -0.025464 3.645251 -1.990751 0.000002 0.000009 -3.011619 -5.000163 -7.999949 0.000018 -10.083003 68.204671 12.365410 -33.914881 119.779634 44.529746 -0.000001 0.000003 -0.000002 -0.019256 -3.640011 1.990817 -0.000002 -0.000005 3.011611 -5.000152 7.999909 -0.000012 4.835436 -179.278587 4.143784 179.999991 -0.000004 -1.229005 169.587190 -2.956586 -0.620059 0.000000 -0.000001 0.145126 69.828500 6.862978 2.148639 25.456953 -7.355614 -0.000000 6.241721 179.383676 -0.545475 -0.000005 -0.000004 -1.237010 -10.691018 2.019870 0.487567 0.000002 -0.000001 -0.177509 70.539701 -6.832007 -2.173766 25.456950 7.355613 -0.000001 
52.066101 -4.468345 84.393890 -11.110265 0.859736 -3.902003 -0.087368 -0.325456 0.073501 3.837818 -0.638453 0.155858 5.482958 -0.636552 0.163284 12.645036 6.857471 -1.320959 2.669029 -7.554330 -1.356305 6.745461 -73.439587 5.706778 -43.249636 -112.916626 -48.209811 -0.000001 0.000000 0.000000 -0.025466 3.645251 -1.990750 0.000002 0.000009 -3.011621 -5.000163 -7.999948 0.000017 -10.111232 68.183122 12.396063 -33.892792 119.801040 44.528841 -0.000001 0.000003 -0.000001 -0.019258 -3.640011 1.990818 -0.000001 -0.000004 3.011611 -5.000151 7.999908 -0.000011 4.841017 -179.278587 4.142265 179.999991 -0.000005 -1.229006 169.590810 -2.954644 -0.620508 0.000001 -0.000001 0.145126 69.828514 6.863011 2.148642 25.456959 -7.355618 -0.000000 6.243218 179.386668 -0.542837 -0.000004 -0.000004 -1.237010 -10.692011 2.018714 0.487624 0.000002 -0.000001 -0.177596 70.540220 -6.831982 -2.173732 25.456950 7.355613 -0.000000 
52.065899 -4.471081 84.401199 -11.112360 0.858047 -3.900872 -0.087774 -0.325393 0.073502 3.836287 -0.637313 0.155858 5.481428 -0.635412 0.163284 12.642770 6.848050 -1.326393 2.664349 -7.547196 -1.361831 6.727076 -73.438365 5.687038 -43.254505 -112.914440 -48.212099 0.000001 0.000000 -0.000000 -0.025463 3.645251 -1.990751 -0.000000 0.000009 -3.011619 -5.000165 -7.999950 0.000019 -10.140773 68.160657 12.428164 -33.867462 119.824836 44.526007 -0.000000 0.000003 -0.000001 -0.019259 -3.640011 1.990816 -0.000001 -0.000005 3.011611 -5.000151 7.999909 -0.000009 4.846598 -179.277576 4.140921 179.999991 -0.000005 -1.229006 169.594649 -2.951738 -0.620783 0.000000 -0.000001 0.145127 69.828603 6.862980 2.148732 25.456955 -7.355617 -0.000000 6.244672 179.390629 -0.539820 -0.000004 -0.000004 -1.237010 -10.692804 2.017471 0.487670 0.000001 -0.000001 -0.177676 70.540643 -6.831986 -2.173706 25.456947 7.355612 -0.000000 
52.067799 -4.470893 84.394798 -11.114457 0.856220 -3.899758 -0.088189 -0.325322 0.073501 3.834746 -0.636129 0.155858 5.479876 -0.634230 0.163284 12.640803 6.838670 -1.331889 2.659318 -7.540043 -1.367422 6.708577 -73.436944 5.667186 -43.261185 -112.911599 -48.216740 -0.000000 0.000000 0.000000 -0.025463 3.645251 -1.990750 0.000001 0.000009 -3.011619 -5.000160 -7.999949 0.000019 -10.171021 68.137646 12.461024 -33.841842 119.848523 44.523725 -0.000001 0.000003 -0.000002 -0.019261 -3.640010 1.990817 -0.000001 -0.000004 3.011611 -5.000151 7.999909 -0.000011 4.852171 -179.276606 4.139627 179.999991 -0.000005 -1.229004 169.598474 -2.948818 -0.620042 0.000000 -0.000001 0.145126 69.828712 6.862985 2.148724 25.456959 -7.355617 -0.000000 6.246109 179.394604 -0.536647 -0.000004 -0.000004 -1.237010 -10.693595 2.016168 0.487710 0.000002 -0.000001 -0.177752 70.541074 -6.831992 -2.173679 25.456950 7.355613 -0.000001 
52.066502 -4.472566 84.399803 -11.116549 0.854359 -3.898642 -0.088610 -0.325250 0.073501 3.833186 -0.634934 0.155858 5.478314 -0.633039 0.163284 12.639041 6.829303 -1.337419 2.654211 -7.532871 -1.373043 6.690127 -73.435626 5.647380 -43.266250 -112.909475 -48.219739 0.000000 -0.000000 -0.000000 -0.025463 3.645251 -1.990750 -0.000000 0.000009 -3.011619 -5.000162 -7.999949 0.000019 -10.201430 68.114512 12.494062 -33.816243 119.872251 44.521758 -0.000002 0.000003 -0.000002 -0.019259 -3.640010 1.990816 -0.000002 -0.000004 3.011610 -5.000149 7.999909 -0.000011 4.857729 -179.276606 4.138257 179.999991 -0.000005 -1.229007 169.602203 -2.945911 -0.620307 0.000001 -0.000001 0.145127 69.828917 6.862957 2.148709 25.456957 -7.355614 -0.000001 6.247534 179.397610 -0.533543 -0.000005 -0.000004 -1.237010 -10.694387 2.014865 0.487751 0.000002 -0.000001 -0.177827 70.541497 -6.831997 -2.173654 25.456945 7.355613 -0.000001 
52.070599 -4.469705 84.400902 -11.118644 0.852567 -3.897522 -0.089024 -0.325181 0.073501 3.831644 -0.633761 0.155858 5.476764 -0.631866 0.163284 12.636975 6.819906 -1.342897 2.649265 -7.525727 -1.378620 6.671678 -73.434314 5.627576 -43.271315 -112.907350 -48.222522 -0.000001 0.000000 -0.000000 -0.025465 3.645250 -1.990750 0.000000 0.000009 -3.011620 -5.000165 -7.999949 0.000019 -10.231367 68.091604 12.526593 -33.789728 119.896799 44.518227 -0.000001 0.000003 -0.000003 -0.019259 -3.640011 1.990816 -0.000003 -0.000005 3.011610 -5.000149 7.999909 -0.000012 4.863303 -179.275609 4.136953 179.999991 -0.000005 -1.229006 169.606042 -2.942991 -0.620566 0.000001 -0.000001 0.145126 69.829020 6.862960 2.148701 25.456955 -7.355616 -0.000000 6.248971 179.401571 -0.530407 -0.000004 -0.000004 -1.237010 -10.695178 2.013583 0.487793 0.000001 -0.000001 -0.177905 70.541927 -6.832004 -2.173630 25.456952 7.355613 0.000000 
52.070400 -4.475423 84.400398 -11.120742 0.850948 -3.896387 -0.089430 -0.325121 0.073502 3.830123 -0.632643 0.155858 5.475253 -0.630749 0.163284 12.634606 6.810466 -1.348308 2.644748 -7.518605 -1.384099 6.653265 -73.432989 5.607808 -43.277602 -112.904379 -48.226183 0.000001 -0.000000 -0.000000 -0.025461 3.645251 -1.990750 0.000003 0.000009 -3.011621 -5.000162 -7.999950 0.000018 -10.260295 68.069358 12.558010 -33.766512 119.918956 44.517209 -0.000002 0.000002 -0.000002 -0.019260 -3.640011 1.990815 -0.000001 -0.000004 3.011610 -5.000152 7.999909 -0.000010 4.868881 -179.274639 4.135577 179.999991 -0.000005 -1.229004 169.609771 -2.940069 -0.619835 0.000001 -0.000001 0.145125 69.829033 6.862995 2.148708 25.456952 -7.355616 0.000000 6.250445 179.404563 -0.527577 -0.000004 -0.000004 -1.237010 -10.696072 2.012358 0.487841 0.000001 -0.000001 -0.177987 70.542351 -6.832009 -2.173705 25.456950 7.355613 -0.000000 
52.069698 -4.475096 84.397194 -11.122835 0.849604 -3.895229 -0.089805 -0.325073 0.073501 3.828652 -0.631610 0.155858 5.473771 -0.629719 0.163285 12.631530 6.800958 -1.353587 2.640907 -7.511535 -1.389437 6.634894 -73.431760 5.588075 -43.284931 -112.900472 -48.230237 0.000001 0.000000 0.000000 -0.025463 3.645250 -1.990750 0.000001 0.000009 -3.011620 -5.000162 -7.999950 0.000019 -10.287589 68.048116 12.587648 -33.744819 119.940444 44.516072 0.000001 0.000003 -0.000001 -0.019260 -3.640010 1.990817 -0.000000 -0.000004 3.011610 -5.000151 7.999908 -0.000011 4.874475 -179.274639 4.134028 179.999991 -0.000004 -1.229005 169.613500 -2.937161 -0.620103 0.000001 -0.000001 0.145126 69.829129 6.862963 2.148696 25.456959 -7.355618 0.000000 6.251965 179.407554 -0.525053 -0.000005 -0.000004 -1.237010 -10.697066 2.011241 0.487902 0.000001 -0.000001 -0.178077 70.542877 -6.831983 -2.173767 25.456953 7.355613 -0.000000 
52.071701 -4.475483 84.399796 -11.125033 0.848641 -3.894045 -0.090155 -0.325046 0.073501 3.827231 -0.630695 0.155858 5.472359 -0.628806 0.163284 12.627546 6.791337 -1.358685 2.637990 -7.504528 -1.394569 6.616636 -73.430633 5.568454 -43.291501 -112.896313 -48.232429 0.000001 0.000000 0.000000 -0.025465 3.645250 -1.990750 -0.000000 0.000010 -3.011620 -5.000163 -7.999948 0.000018 -10.312703 68.028322 12.614906 -33.726723 119.959651 44.516280 0.000001 0.000003 -0.000002 -0.019256 -3.640010 1.990816 -0.000005 -0.000005 3.011610 -5.000151 7.999909 -0.000011 4.880075 -179.274639 4.132328 179.999991 -0.000005 -1.229005 169.617134 -2.935220 -0.620553 0.000001 -0.000001 0.145126 69.829136 6.862963 2.148696 25.456959 -7.355619 0.000000 6.253551 179.409535 -0.523068 -0.000004 -0.000004 -1.237010 -10.698159 2.010261 0.487975 0.000001 -0.000001 -0.178178 70.543410 -6.831990 -2.173737 25.456947 7.355613 -0.000000 
